<?xml version="1.0" encoding="UTF-8"?>
<svg xmlns="http://www.w3.org/2000/svg" viewBox="0 0 800 400">
    <defs>
        <!-- Background gradient -->
        <linearGradient id="bg" x1="0%" y1="0%" x2="100%" y2="100%">
            <stop offset="0%" style="stop-color:#0f172a;stop-opacity:1" />
            <stop offset="100%" style="stop-color:#1e293b;stop-opacity:1" />
        </linearGradient>
        
        <!-- Accent gradient -->
        <linearGradient id="accent" x1="0%" y1="0%" x2="100%" y2="0%">
            <stop offset="0%" style="stop-color:#3b82f6;stop-opacity:1" />
            <stop offset="100%" style="stop-color:#2563eb;stop-opacity:1" />
        </linearGradient>

        <!-- Text gradient -->
        <linearGradient id="text-gradient" x1="0%" y1="0%" x2="100%" y2="0%">
            <stop offset="0%" style="stop-color:#60a5fa;stop-opacity:1" />
            <stop offset="50%" style="stop-color:#e879f9;stop-opacity:1" />
            <stop offset="100%" style="stop-color:#60a5fa;stop-opacity:1" />
            <animate attributeName="x1" values="0%;100%;0%" dur="3s" repeatCount="indefinite" />
            <animate attributeName="x2" values="100%;200%;100%" dur="3s" repeatCount="indefinite" />
        </linearGradient>

        <!-- Python logo gradients -->
        <linearGradient id="python-blue" x1="12.9593594%" y1="12.0393928%" x2="79.6388325%" y2="78.2008538%">
            <stop stop-color="#387EB8" offset="0%"/>
            <stop stop-color="#366994" offset="100%"/>
        </linearGradient>
        <linearGradient id="python-yellow" x1="19.127525%" y1="20.5791813%" x2="90.7415328%" y2="88.4290372%">
            <stop stop-color="#FFE052" offset="0%"/>
            <stop stop-color="#FFC331" offset="100%"/>
        </linearGradient>

        <!-- Animated background pattern -->
        <pattern id="grid" x="0" y="0" width="40" height="40" patternUnits="userSpaceOnUse">
            <path d="M 40 0 L 0 0 0 40" fill="none" stroke="url(#accent)" stroke-width="1" opacity="0.1"/>
        </pattern>
    </defs>

    <!-- Animated background -->
    <rect width="800" height="400" fill="url(#bg)">
    </rect>
    
    <!-- Animated grid -->
    <rect width="800" height="400" fill="url(#grid)">
        <animateTransform attributeName="transform" type="translate" 
            from="-40 -40" to="0 0" dur="3s" repeatCount="indefinite"/>
    </rect>

    <!-- Floating particles -->
    <g>
        <circle cx="100" cy="100" r="2" fill="#60a5fa" opacity="0.5">
            <animate attributeName="cy" values="100;50;100" dur="4s" repeatCount="indefinite" />
            <animate attributeName="opacity" values="0.5;0.8;0.5" dur="4s" repeatCount="indefinite" />
        </circle>
        <circle cx="700" cy="300" r="2" fill="#60a5fa" opacity="0.5">
            <animate attributeName="cy" values="300;250;300" dur="3s" repeatCount="indefinite" />
            <animate attributeName="opacity" values="0.5;0.8;0.5" dur="3s" repeatCount="indefinite" />
        </circle>
        <circle cx="200" cy="350" r="2" fill="#60a5fa" opacity="0.5">
            <animate attributeName="cy" values="350;300;350" dur="5s" repeatCount="indefinite" />
            <animate attributeName="opacity" values="0.5;0.8;0.5" dur="5s" repeatCount="indefinite" />
        </circle>
    </g>

    <!-- Main decorative shapes -->
    <g transform="translate(400, 200)">
        <!-- Rotating hexagon -->
        <path d="M0,-80 L69.28,-40 L69.28,40 L0,80 L-69.28,40 L-69.28,-40 Z" 
              fill="none" 
              stroke="url(#accent)" 
              stroke-width="2"
              opacity="0.2">
            <animateTransform attributeName="transform"
                            type="rotate"
                            from="0 0 0"
                            to="360 0 0"
                            dur="30s"
                            repeatCount="indefinite"/>
        </path>
        
        <!-- Inner rotating hexagon -->
        <path d="M0,-60 L51.96,-30 L51.96,30 L0,60 L-51.96,30 L-51.96,-30 Z" 
              fill="none" 
              stroke="url(#accent)" 
              stroke-width="2"
              opacity="0.3">
            <animateTransform attributeName="transform"
                            type="rotate"
                            from="360 0 0"
                            to="0 0 0"
                            dur="20s"
                            repeatCount="indefinite"/>
        </path>
    </g>

    <!-- Tech badges -->
    <g transform="translate(400, 200)">
        <!-- Python -->
        <g transform="translate(-240, 0)">
            <circle r="32" fill="#1e293b" opacity="0.6"/>
            <circle r="30" fill="none" stroke="#3b82f6" stroke-width="2">
                <animate attributeName="stroke-dasharray" 
                         values="0,189.5;189.5,0" 
                         dur="3s" 
                         repeatCount="indefinite"/>
            </circle>
            <g transform="translate(-15,-15) scale(0.12)">
                <path d="M126.915866,0.0722755491 C62.0835831,0.0722801733 66.1321288,28.1874648 66.1321288,28.1874648 L66.2044043,57.3145115 L128.072276,57.3145115 L128.072276,66.0598532 L41.6307171,66.0598532 C41.6307171,66.0598532 0.144551098,61.3549438 0.144551098,126.771315 C0.144546474,192.187673 36.3546019,189.867871 36.3546019,189.867871 L57.9649915,189.867871 L57.9649915,159.51214 C57.9649915,159.51214 56.8001363,123.302089 93.5968379,123.302089 L154.95878,123.302089 C154.95878,123.302089 189.434218,123.859386 189.434218,89.9830604 L189.434218,33.9695088 C189.434218,33.9695041 194.668541,0.0722755491 126.915866,0.0722755491 Z" fill="url(#python-blue)"/>
                <path d="M128.757101,254.126271 C193.589403,254.126271 189.540839,226.011081 189.540839,226.011081 L189.468564,196.884035 L127.600692,196.884035 L127.600692,188.138693 L214.042251,188.138693 C214.042251,188.138693 255.528417,192.843589 255.528417,127.427208 C255.52844,62.0108566 219.318366,64.3306589 219.318366,64.3306589 L197.707976,64.3306589 L197.707976,94.6863832 C197.707976,94.6863832 198.87285,130.896434 162.07613,130.896434 L100.714182,130.896434 C100.714182,130.896434 66.238745,130.339138 66.238745,164.215486 L66.238745,220.229038 C66.238745,220.229038 61.0044225,254.126271 128.757101,254.126271 Z" fill="url(#python-yellow)"/>
            </g>
        </g>
        
        <!-- TypeScript -->
        <g transform="translate(-120, 0)">
            <circle r="32" fill="#1e293b" opacity="0.6"/>
            <circle r="30" fill="none" stroke="#3b82f6" stroke-width="2">
                <animate attributeName="stroke-dasharray" 
                         values="0,189.5;189.5,0" 
                         dur="3s" 
                         repeatCount="indefinite"/>
            </circle>
            <g transform="translate(-15,-15) scale(0.075)">
                <path fill="#007acc" d="M0 200V0h400v400H0"/>
                <path fill="#fff" d="M87.7 200.7V217h52v148h36.9V217h52v-16c0-9 0-16.3-.4-16.5 0-.3-31.7-.4-70.2-.4l-70 .3v16.4l-.3-.1zM321.4 184c10.2 2.4 18 7 25 14.3 3.7 4 9.2 11 9.6 12.8 0 .6-17.3 12.3-27.8 18.8-.4.3-2-1.4-3.6-4-5.2-7.4-10.5-10.6-18.8-11.2-12-.8-20 5.5-20 16 0 3.2.6 5 1.8 7.6 2.7 5.5 7.7 8.8 23.2 15.6 28.6 12.3 41 20.4 48.5 32 8.5 13 10.4 33.4 4.7 48.7-6.4 16.7-22 28-44.3 31.7-7 1.2-23 1-30.5-.3-16-3-31.3-11-40.7-21.3-3.7-4-10.8-14.7-10.4-15.4l3.8-2.4 15-8.7 11.3-6.6 2.6 3.5c3.3 5.2 10.7 12.2 15 14.6 13 6.7 30.4 5.8 39-2 3.7-3.4 5.3-7 5.3-12 0-4.6-.7-6.7-3-10.2-3.2-4.4-9.6-8-27.6-16-20.7-8.8-29.5-14.4-37.7-23-4.7-5.2-9-13.3-11-20-1.5-5.8-2-20-.6-25.7 4.3-20 19.4-34 41-38 7-1.4 23.5-.8 30.4 1l-.2.2z"/>
            </g>
        </g>

<!-- Solana -->
<g transform="translate(0, 0)">
    <circle r="32" fill="#1e293b" opacity="0.6"/>
    <circle r="30" fill="none" stroke="#3b82f6" stroke-width="2">
        <animate attributeName="stroke-dasharray" 
                 values="189.5,0;0,189.5" 
                 dur="3s" 
                 repeatCount="indefinite"/>
    </circle>
    <g transform="translate(-16,-12) scale(0.08)">
        <defs>
            <linearGradient id="solana-gradient-1" gradientUnits="userSpaceOnUse" x1="360.8791" y1="351.4553" x2="141.213" y2="-69.2936" gradientTransform="matrix(1 0 0 -1 0 314)">
                <stop offset="0" style="stop-color:#00FFA3"/>
                <stop offset="1" style="stop-color:#DC1FFF"/>
            </linearGradient>
            <linearGradient id="solana-gradient-2" gradientUnits="userSpaceOnUse" x1="264.8291" y1="401.6014" x2="45.163" y2="-19.1475" gradientTransform="matrix(1 0 0 -1 0 314)">
                <stop offset="0" style="stop-color:#00FFA3"/>
                <stop offset="1" style="stop-color:#DC1FFF"/>
            </linearGradient>
            <linearGradient id="solana-gradient-3" gradientUnits="userSpaceOnUse" x1="312.5484" y1="376.688" x2="92.8822" y2="-44.061" gradientTransform="matrix(1 0 0 -1 0 314)">
                <stop offset="0" style="stop-color:#00FFA3"/>
                <stop offset="1" style="stop-color:#DC1FFF"/>
            </linearGradient>
        </defs>
        <path fill="url(#solana-gradient-1)" d="M64.6,237.9c2.4-2.4,5.7-3.8,9.2-3.8h317.4c5.8,0,8.7,7,4.6,11.1l-62.7,62.7c-2.4,2.4-5.7,3.8-9.2,3.8H6.5c-5.8,0-8.7-7-4.6-11.1L64.6,237.9z"/>
        <path fill="url(#solana-gradient-2)" d="M64.6,3.8C67.1,1.4,70.4,0,73.8,0h317.4c5.8,0,8.7,7,4.6,11.1l-62.7,62.7c-2.4,2.4-5.7,3.8-9.2,3.8H6.5c-5.8,0-8.7-7-4.6-11.1L64.6,3.8z"/>
        <path fill="url(#solana-gradient-3)" d="M333.1,120.1c-2.4-2.4-5.7-3.8-9.2-3.8H6.5c-5.8,0-8.7,7-4.6,11.1l62.7,62.7c2.4,2.4,5.7,3.8,9.2,3.8h317.4c5.8,0,8.7-7,4.6-11.1L333.1,120.1z"/>
    </g>
</g>
     
<!-- React -->
<g transform="translate(240, 0)">
    <circle r="32" fill="#1e293b" opacity="0.6"/>
    <circle r="30" fill="none" stroke="#3b82f6" stroke-width="2">
        <animate attributeName="stroke-dasharray" 
                 values="189.5,0;0,189.5" 
                 dur="3s" 
                 repeatCount="indefinite"/>
    </circle>
    <g transform="translate(-18,-18) scale(0.065)">
        <g transform="translate(-150 -15)" fill="#61DAFB">
            <path d="M666.3 296.5c0-32.5-40.7-63.3-103.1-82.4 14.4-63.6 8-114.2-20.2-130.4-6.5-3.8-14.1-5.6-22.4-5.6v22.3c4.6 0 8.3.9 11.4 2.6 13.6 7.8 19.5 37.5 14.9 75.7-1.1 9.4-2.9 19.3-5.1 29.4-19.6-4.8-41-8.5-63.5-10.9-13.5-18.5-27.5-35.3-41.6-50 32.6-30.3 63.2-46.9 84-46.9V78c-27.5 0-63.5 19.6-99.9 53.6-36.4-33.8-72.4-53.2-99.9-53.2v22.3c20.7 0 51.4 16.5 84 46.6-14 14.7-28 31.4-41.3 49.9-22.6 2.4-44 6.1-63.6 11-2.3-10-4-19.7-5.2-29-4.7-38.2 1.1-67.9 14.6-75.8 3-1.8 6.9-2.6 11.5-2.6V78.5c-8.4 0-16 1.8-22.6 5.6-28.1 16.2-34.4 66.7-19.9 130.1-62.2 19.2-102.7 49.9-102.7 82.3 0 32.5 40.7 63.3 103.1 82.4-14.4 63.6-8 114.2 20.2 130.4 6.5 3.8 14.1 5.6 22.5 5.6 27.5 0 63.5-19.6 99.9-53.6 36.4 33.8 72.4 53.2 99.9 53.2 8.4 0 16-1.8 22.6-5.6 28.1-16.2 34.4-66.7 19.9-130.1 62-19.1 102.5-49.9 102.5-82.3zm-130.2-66.7c-3.7 12.9-8.3 26.2-13.5 39.5-4.1-8-8.4-16-13.1-24-4.6-8-9.5-15.8-14.4-23.4 14.2 2.1 27.9 4.7 41 7.9zm-45.8 106.5c-7.8 13.5-15.8 26.3-24.1 38.2-14.9 1.3-30 2-45.2 2-15.1 0-30.2-.7-45-1.9-8.3-11.9-16.4-24.6-24.2-38-7.6-13.1-14.5-26.4-20.8-39.8 6.2-13.4 13.2-26.8 20.7-39.9 7.8-13.5 15.8-26.3 24.1-38.2 14.9-1.3 30-2 45.2-2 15.1 0 30.2.7 45 1.9 8.3 11.9 16.4 24.6 24.2 38 7.6 13.1 14.5 26.4 20.8 39.8-6.3 13.4-13.2 26.8-20.7 39.9zm32.3-13c5.4 13.4 10 26.8 13.8 39.8-13.1 3.2-26.9 5.9-41.2 8 4.9-7.7 9.8-15.6 14.4-23.7 4.6-8 8.9-16.1 13-24.1zM421.2 430c-9.3-9.6-18.6-20.3-27.8-32 9 .4 18.2.7 27.5.7 9.4 0 18.7-.2 27.8-.7-9 11.7-18.3 22.4-27.5 32zm-74.4-58.9c-14.2-2.1-27.9-4.7-41-7.9 3.7-12.9 8.3-26.2 13.5-39.5 4.1 8 8.4 16 13.1 24 4.7 8 9.5 15.8 14.4 23.4zM420.7 163c9.3 9.6 18.6 20.3 27.8 32-9-.4-18.2-.7-27.5-.7-9.4 0-18.7.2-27.8.7 9-11.7 18.3-22.4 27.5-32zm-74 58.9c-4.9 7.7-9.8 15.6-14.4 23.7-4.6 8-8.9 16-13 24-5.4-13.4-10-26.8-13.8-39.8 13.1-3.1 26.9-5.8 41.2-7.9zm-90.5 125.2c-35.4-15.1-58.3-34.9-58.3-50.6 0-15.7 22.9-35.6 58.3-50.6 8.6-3.7 18-7 27.7-10.1 5.7 19.6 13.2 40 22.5 60.9-9.2 20.8-16.6 41.1-22.2 60.6-9.9-3.1-19.3-6.5-28-10.2zM310 490c-13.6-7.8-19.5-37.5-14.9-75.7 1.1-9.4 2.9-19.3 5.1-29.4 19.6 4.8 41 8.5 63.5 10.9 13.5 18.5 27.5 35.3 41.6 50-32.6 30.3-63.2 46.9-84 46.9-4.5-.1-8.3-1-11.3-2.7zm237.2-76.2c4.7 38.2-1.1 67.9-14.6 75.8-3 1.8-6.9 2.6-11.5 2.6-20.7 0-51.4-16.5-84-46.6 14-14.7 28-31.4 41.3-49.9 22.6-2.4 44-6.1 63.6-11 2.3 10.1 4.1 19.8 5.2 29.1zm38.5-66.7c-8.6 3.7-18 7-27.7 10.1-5.7-19.6-13.2-40-22.5-60.9 9.2-20.8 16.6-41.1 22.2-60.6 9.9 3.1 19.3 6.5 28.1 10.2 35.4 15.1 58.3 34.9 58.3 50.6-.1 15.7-23 35.6-58.4 50.6z"/>
            <circle r="45.7" cy="296.5" cx="420.9"/>
        </g>
    </g>
</g>

<!-- Next.js Tech Stack Component -->
<g transform="translate(120, 0)">
    <!-- Background circle -->
    <circle r="32" fill="#1e293b" opacity="0.6"/>
    
    <!-- Animated ring -->
    <circle r="30" fill="none" stroke="#3b82f6" stroke-width="2">
        <animate attributeName="stroke-dasharray" 
                 values="0,189.5;189.5,0" 
                 dur="3s" 
                 repeatCount="indefinite"/>
    </circle>
    
    <!-- Next.js logo -->
    <g transform="translate(-24,-24) scale(1)">
        <g>
            <path fill="#FFFFFF" d="M24,4C12.972,4,4,12.972,4,24s8.972,20,20,20s20-8.972,20-20S35.028,4,24,4z M33.514,38.081l-13.771-20.42
                c-0.367-0.547-1.055-0.786-1.682-0.596C17.431,17.259,17,17.841,17,18.5v13c0,0.828,0.672,1.5,1.5,1.5s1.5-0.672,1.5-1.5v-8.093
                l10.877,16.127C28.771,40.469,26.448,41,24,41c-9.374,0-17-7.626-17-17S14.626,7,24,7s17,7.626,17,17
                C41,29.852,38.028,35.021,33.514,38.081z"/>
            <path fill="#FFFFFF" d="M29.5,15c-0.828,0-1.5,0.672-1.5,1.5v8.486l3,4.304V16.5C31,15.672,30.328,15,29.5,15z"/>
        </g>
    </g>
</g>
    </g>

    <!-- Enhanced Title with animation and effects -->
    <g transform="translate(400, 80)">
        <!-- Glowing background for text -->
        <!-- <rect x="-200" y="-30" width="400" height="60" fill="url(#bg)" filter="url(#glow)" rx="10"/> -->
        
        <!-- Main title with gradient and animation -->
        <text x="0" 
              y="0" 
              font-family="Arial" 
              font-size="40" 
              font-weight="bold" 
              fill="url(#text-gradient)" 
              text-anchor="middle" 
              dominant-baseline="middle"
              filter="url(#glow)">
            Rafał Jodełka
            <animate attributeName="opacity"
                     values="0.8;1;0.8"
                     dur="3s"
                     repeatCount="indefinite"/>
        </text>
    </g>

    <!-- Subtitle -->
    <g transform="translate(400, 320)">
        <text x="0" 
              y="0" 
              font-family="Arial" 
              font-size="16" 
              fill="#94a3b8" 
              text-anchor="middle" 
              dominant-baseline="middle"
              filter="url(#glow)">
            Building the future with modern technologies
            <animate attributeName="opacity"
                     values="0.6;1;0.6"
                     dur="4s"
                     repeatCount="indefinite"/>
        </text>
    </g>
</svg>